<?xml version="1.0" encoding="UTF-8" standalone="no"?>
<!DOCTYPE svg PUBLIC "-//W3C//DTD SVG 20010904//EN"
              "http://www.w3.org/TR/2001/REC-SVG-20010904/DTD/svg10.dtd">

<svg xmlns="http://www.w3.org/2000/svg"
     viewBox="0 0 469 351">
  <path id="Selection #1"
        fill="none" stroke="black" stroke-width=".5"
        d="M 431.00,0.31
           C 448.06,1.29 451.45,21.79 440.90,30.58
             437.27,33.61 432.56,34.20 428.00,33.96
             409.94,33.01 405.04,6.93 425.00,0.31
             427.22,0.17 428.72,-0.06 431.00,0.31 Z
           M 430.00,27.71
           C 437.61,27.42 442.36,18.69 438.83,12.04
             436.72,8.09 433.17,6.82 429.00,6.51
             413.52,9.34 418.35,28.16 430.00,27.71 Z
           M 161.00,91.33
           C 170.90,88.03 186.66,84.12 197.00,84.00
             219.34,83.74 237.67,84.09 259.00,92.19
             266.93,95.21 274.58,98.72 282.00,102.86
             284.99,104.53 289.53,108.00 293.00,107.31
             295.46,106.82 299.81,103.27 302.00,101.71
             302.00,101.71 320.00,88.53 320.00,88.53
             322.28,86.81 326.54,83.83 327.19,80.96
             328.03,77.27 323.67,72.90 323.22,67.00
             322.39,56.09 333.39,49.41 341.00,43.85
             351.83,35.94 366.92,20.65 379.83,33.19
             379.83,33.19 399.13,58.00 399.13,58.00
             399.13,58.00 435.58,106.00 435.58,106.00
             442.02,114.31 451.15,126.14 444.91,137.00
             442.51,141.18 437.76,144.26 434.00,147.21
             425.67,153.74 411.98,166.67 401.00,165.90
             397.42,165.65 394.90,164.71 392.00,162.59
             389.67,160.88 387.08,157.71 384.00,157.74
             381.40,157.77 377.14,161.18 375.00,162.71
             375.00,162.71 356.00,176.90 356.00,176.90
             353.70,178.65 349.86,181.52 349.13,184.42
             348.53,186.75 351.06,195.89 351.56,199.00
             351.56,199.00 355.00,228.00 355.00,228.00
             355.00,228.00 343.00,228.00 343.00,228.00
             342.99,218.61 341.50,207.09 339.12,198.00
             337.86,193.21 334.20,183.55 335.43,179.04
             336.78,174.09 345.85,168.57 350.00,165.58
             350.00,165.58 388.00,138.00 388.00,138.00
             390.95,141.69 398.31,152.47 403.00,152.75
             406.02,152.93 411.55,148.21 414.00,146.37
             414.00,146.37 428.98,135.19 428.98,135.19
             430.89,133.62 433.46,131.58 433.87,128.99
             434.22,126.77 432.92,124.77 431.79,123.00
             431.79,123.00 387.87,64.00 387.87,64.00
             387.87,64.00 376.63,49.00 376.63,49.00
             374.99,46.84 372.44,43.18 369.96,42.08
             366.67,40.61 363.61,42.93 361.00,44.72
             361.00,44.72 342.00,59.00 342.00,59.00
             339.48,61.05 336.21,63.34 336.56,67.00
             336.89,70.48 343.10,77.97 345.37,81.00
             345.37,81.00 367.00,111.00 367.00,111.00
             364.95,112.36 360.43,115.79 358.04,115.70
             355.43,115.61 353.58,112.86 352.13,110.99
             349.03,107.02 341.00,93.63 336.00,93.82
             333.14,93.93 328.27,98.03 326.00,99.79
             326.00,99.79 304.00,116.35 304.00,116.35
             300.61,118.93 295.53,123.17 291.00,122.25
             287.84,121.61 282.06,117.27 279.00,115.45
             279.00,115.45 259.00,105.31 259.00,105.31
             241.53,97.44 221.99,94.78 203.00,95.00
             195.62,95.09 184.23,97.07 177.00,98.87
             120.40,113.02 75.04,166.96 75.00,226.00
             75.00,226.00 63.00,226.00 63.00,226.00
             63.01,165.44 103.78,110.41 161.00,91.33 Z
           M 464.44,58.04
           C 474.08,70.34 467.92,89.88 452.00,92.67
             431.63,96.24 419.97,74.69 429.85,60.00
             433.65,54.36 438.59,51.96 445.00,50.48
             452.14,49.78 459.90,52.24 464.44,58.04 Z
           M 434.15,66.00
           C 430.36,75.65 438.13,88.01 449.00,86.63
             461.47,85.05 467.70,69.21 457.79,60.56
             453.94,57.19 449.83,56.83 445.00,57.33
             439.74,58.64 436.23,60.69 434.15,66.00 Z
           M 323.35,145.04
           C 330.34,154.57 325.80,169.62 314.00,172.47
             300.52,175.72 287.72,162.13 293.23,149.00
             295.72,143.04 300.07,140.29 306.00,138.53
             312.50,137.61 319.32,139.54 323.35,145.04 Z
           M 308.00,165.77
           C 320.10,167.33 323.49,152.44 315.79,147.01
             312.92,144.98 310.30,145.02 307.00,145.42
             294.93,149.75 297.43,164.42 308.00,165.77 Z
           M 260.66,177.56
           C 267.85,184.13 266.25,199.18 254.00,202.17
             244.74,204.44 236.28,196.20 237.20,187.00
             237.88,180.19 241.75,176.53 248.00,174.53
             252.77,173.79 256.90,174.12 260.66,177.56 Z
           M 184.00,178.28
           C 214.04,179.94 220.04,222.37 192.00,233.05
             188.57,234.35 183.67,235.13 180.00,234.91
             159.42,233.64 147.12,209.65 157.36,192.00
             162.12,183.80 169.13,180.44 178.00,178.28
             180.30,178.15 181.63,177.95 184.00,178.28 Z
           M 252.96,195.31
           C 260.83,193.21 261.13,180.25 249.04,181.45
             238.57,185.93 245.49,197.30 252.96,195.31 Z
           M 181.00,227.96
           C 204.78,228.92 210.10,200.97 195.96,189.39
             190.64,185.04 183.54,184.60 177.00,185.33
             152.44,191.37 155.26,226.92 181.00,227.96 Z
           M 317.44,211.18
           C 325.81,221.09 323.46,242.95 304.00,244.82
             287.14,246.45 276.13,228.24 284.99,214.00
             288.78,207.92 293.25,205.82 300.00,204.55
             306.50,204.32 313.08,206.01 317.44,211.18 Z
           M 126.00,238.80
           C 110.17,237.10 107.65,214.45 126.00,210.56
             147.77,209.94 145.26,240.86 126.00,238.80 Z
           M 305.00,237.67
           C 321.19,234.83 318.83,210.02 300.00,211.35
             281.32,216.28 287.49,240.74 305.00,237.67 Z
           M 128.00,231.81
           C 132.33,231.40 135.49,227.34 134.53,223.04
             133.57,218.80 129.78,217.74 126.02,217.61
             116.68,220.83 119.25,232.64 128.00,231.81 Z" />
</svg>
